<svg width="242" height="303" viewBox="0 0 242 303" fill="none" xmlns="http://www.w3.org/2000/svg">
<path fill-rule="evenodd" clip-rule="evenodd" d="M70.72 13.691C74.5241 13.3954 80.036 10.3466 83.9277 7.8507C91.5687 9.18077 100.682 9.90328 108.635 10.5218C109.177 12.5853 106.216 11.1239 106.769 13.1983C110.972 15.2892 119.227 12.2678 120.349 17.7085C121.224 14.7364 123.397 13.1217 125.083 10.998C123.452 10.5327 121.602 12.0763 124.257 11.6822C123.337 13.6198 121.985 11.414 120.633 11.8628C128.395 7.63723 135.352 17.2378 144.536 10.686C146.353 10.4889 146.616 11.5946 147.952 11.8081C150.201 11.0199 150.957 8.73741 152.33 7.05703C152.648 5.10846 149.079 6.37831 148.324 5.31097C148.28 2.99019 149.687 2.1199 150.53 0.680362C157.651 -0.332243 155.259 6.51516 157.705 9.38329C160.541 9.41066 160.404 6.48779 163.179 6.51515C164.865 7.75765 163.557 11.4523 165.018 12.9028C168.324 11.923 170.18 9.46539 170.546 5.50255C173.71 5.16867 175.183 6.18127 176.737 7.14461C174.537 9.90875 176.868 10.7845 176.398 13.6362C173.825 14.8897 171.471 16.3292 167.366 16.0282C165.286 20.8558 176.244 19.4929 175.987 24.6709C171.083 21.6057 168.932 27.2927 164.29 25.897C163.316 24.5614 166.682 22.6293 166.107 19.3178C166.321 17.2707 161.006 18.0862 159.709 19.0058C159.835 20.5603 162.183 20.3139 163.715 20.7518C156.841 25.0267 147.968 28.5188 144.941 38.5135C146.178 40.8561 151.061 40.1938 149.643 44.7424C156.633 45.339 159.057 49.7233 166.792 49.7233C164.673 56.3353 167.52 58.8531 171.466 60.4843C176.392 57.2932 175.615 48.3987 179.851 44.5398C177.279 39.3071 179.485 33.6584 181.948 27.6047C189.556 24.5888 192.26 29.7722 197.252 30.7301C197.619 33.1275 195.155 32.6787 195.134 34.7148C195.675 36.3624 196.447 37.7691 198.117 38.4533C202.435 38.2672 205.528 33.4286 208.21 34.069C208.779 40.7193 211.281 45.7714 218.248 47.1671C217.871 49.5864 213.59 48.1195 213.333 50.6538C214.822 52.5586 217.871 49.6521 220.596 50.2871C221.653 51.7759 221.85 53.9707 220.312 56.1328C210.613 60.123 194.98 58.1416 190.421 67.3152C193.617 68.191 196.732 62.4876 202.572 63.4783C202.572 65.498 200.689 65.6458 198.615 65.6184C197.783 70.873 204.252 68.1253 204.061 71.82C207.088 71.809 207.52 69.1817 210.262 68.9299C207.323 72.8161 201.724 74.0532 197.509 76.6859C197.865 73.7412 200.848 73.4182 202.616 71.8911C197.941 71.82 185.735 74.7921 187.421 81.0593C183.251 83.7085 177.542 84.8743 176.485 90.6599C175.297 90.1344 175.702 88.3227 174.044 88.1913C174.865 97.4909 166.436 102.368 159.884 108.318C160.015 113.096 161.247 116.944 161.247 121.837C156.731 123.189 157.53 115.619 156.359 112.373C153.141 111.629 149.747 111.071 144.969 111.645C143.327 112.932 144.366 114.037 144.312 115.554C138.034 113.742 130.595 113.698 125.888 118.422C122.385 128.931 121.197 142.505 135.538 138.001C136.791 136.971 137.207 135.094 137.754 133.364C139.895 132.456 141.75 131.284 144.607 131.087C146.096 134.853 141.126 138.083 141.192 142.894C142.079 145.182 148.192 143.124 150.289 144.388C149.358 150.042 147.317 156.6 151.608 157.919C155.976 157.333 160.59 155.976 161.466 159.375C164.854 154.503 167.388 153.409 172.292 150.425C173.809 151.493 168.729 155.166 172.024 156.271C174.383 155.034 174.777 151.92 176.628 150.217C179.654 152.976 184.767 153.994 191.921 153.332C193.596 163.77 211.954 160.426 212.583 171.728C210.832 174.307 207.909 175.713 206.398 178.505C208.648 180.234 212.386 173.661 214.805 175.505C214.472 178.209 210.481 177.246 209.814 179.632C212.89 181.915 215.758 177.498 218.199 176.627C224.313 181.148 236.962 180.256 241.013 186.496C239.967 193.842 234.954 197.202 230.646 201.264C228.785 210.049 226.639 218.56 221.16 223.733C213.142 224.357 208.839 228.659 203.913 232.353C203.048 241.281 194.055 255.523 183.36 252.151C181.307 254.231 185.889 255.643 185.15 258.528C183.075 262.02 177.717 262.228 173.535 263.629C171.45 265.857 170.552 269.272 165.527 268.555C165.182 270.542 165.637 271.856 167.06 272.359C163.557 274.177 163.168 279.147 159.233 280.531C158.346 283.662 158.975 285.611 161.98 285.567C156.337 290.57 153.223 298.123 146.945 302.491C148.116 298.709 144.881 298.567 141.898 298.211C144.531 296.268 141.652 288.829 146.934 289.557C147.798 286.197 142.615 284.894 142.85 283.925C143.195 281.057 144.925 283.646 145.724 283.777C148.275 280.816 149.484 273.509 147.902 270.734C154.142 255.917 160.42 237.893 164.432 218.774C154.186 212.605 150.989 200.618 147.957 188.527C147.957 186.485 150.185 186.693 150.661 185.15C147.005 176.288 166.896 166.561 157.295 158.291C151.416 162.752 148.165 156.632 143.852 157.005C144.706 147.497 132.171 149.046 127.322 144.235C118.405 143.978 106.539 142.067 106.993 132.297C101.547 126.123 99.4069 117.196 93.1999 111.613C91.1911 118.909 97.4364 124.273 99.4671 130.08C91.3826 125.559 91.7111 117.442 88.5638 109.253C78.8045 103.38 73.2488 91.2291 80.1783 73.4237C82.1926 73.889 82.5374 74.1353 83.8839 72.5863C82.5867 68.0377 79.5215 64.9616 73.8564 64.0311C75.9308 62.1044 74.3107 58.9298 72.1924 60.8674C70.1836 60.6101 73.5115 59.8055 73.2488 58.875C72.904 57.4683 70.9773 57.3753 70.0523 56.4448C74.869 48.4589 62.548 49.9586 63.6537 43.166C54.4581 41.9508 45.4323 40.6098 38.7765 37.2764C35.0161 37.8457 35.1803 42.323 31.3653 42.8266C29.4988 41.617 32.4162 38.8474 33.593 38.1905C29.3784 36.034 26.6143 41.8414 25.2513 45.0762C19.5479 49.7616 12.4323 53.0621 5.38787 56.4119C6.78909 53.2318 16.9918 52.2849 17.9004 46.0834C13.2533 44.4194 1.31556 45.0762 2.96309 36.4718C6.03375 33.4286 13.0782 34.4138 12.9687 28.2068C7.6977 30.9436 0.954304 30.0076 0.5 25.5904C5.11419 22.3994 9.53134 26.7399 12.9906 23.6747C11.7153 20.0457 5.01567 20.927 4.9062 16.3018C14.7859 12.2405 25.7659 3.54303 35.465 9.60771C46.0563 8.44184 57.8353 10.9323 66.4616 13.2531C67.6494 14.3423 65.7063 18.0424 68.6018 17.6812C70.8514 15.9734 68.5799 13.2476 68.9685 11.1896C70.8295 12.4758 74.0042 10.0018 75.8433 8.90709C78.8045 9.52013 71.1087 11.4742 70.6981 13.691H70.72ZM148.039 71.3547C151.301 69.9808 158.455 70.2326 158.477 73.4182C156.512 72.9749 156.447 74.4308 154.755 74.2447C153.825 76.1769 151.471 82.0117 154.044 82.7013C155.472 78.5579 156.222 73.7029 161.373 73.2704C161.674 75.8321 162.391 78.0543 164.739 78.9356C164.504 76.1769 167.202 76.3083 167.656 74.2502C161.132 73.6591 158.882 69.5211 155.325 66.4449C152.686 67.3864 147.842 70.0848 148.039 71.3547ZM178.089 67.9118L175.183 68.0596C174.175 70.5994 178.237 70.4023 178.089 67.9118ZM162.539 83.5771C166.365 81.3056 174.597 79.4391 175.221 76.4725C171.384 79.253 165.779 80.2164 162.539 83.5771Z" fill="#00783A"/>
</svg>
